<?xml version="1.0" encoding="UTF-8" standalone="no"?><!DOCTYPE svg PUBLIC "-//W3C//DTD SVG 1.1//EN" "http://www.w3.org/Graphics/SVG/1.1/DTD/svg11.dtd"><svg width="100%" height="100%" viewBox="0 0 3044 3048" version="1.1" xmlns="http://www.w3.org/2000/svg" xmlns:xlink="http://www.w3.org/1999/xlink" xml:space="preserve" xmlns:serif="http://www.serif.com/" style="fill-rule:evenodd;clip-rule:evenodd;stroke-linejoin:round;stroke-miterlimit:2;"><rect id="Mesa-de-trabajo1" serif:id="Mesa de trabajo1" x="0" y="0" width="3043.551" height="3047.926" style="fill:none;"/><path d="M328.072,1228.667c-5.745,29.429 -14.3,146.567 -16.296,177.395c-0.255,3.94 -0.087,7.053 4.325,7.569c12.189,1.424 44.681,5.212 66.431,9.187c18.415,3.365 75.05,16.653 107.95,39.949c32.715,23.164 55.344,28.604 109.634,99.94c2.146,2.82 2.796,-10.612 2.801,-13.599c0.045,-24.1 0.804,-98.702 -2.528,-131.003c-2.153,-20.871 -11.101,-44.768 -16.555,-57.376c-5.846,-13.515 -35.508,-62.871 -62.639,-79.498c-37.443,-22.946 -58.143,-28.818 -82.283,-36.793c-19.336,-6.388 -46.709,-8.239 -62.56,-11.058c-10.014,-1.781 -22.063,-4.164 -30.109,-4.949c-6.093,-0.595 -17.009,-5.72 -18.172,0.238Z"/><path d="M1292.476,625.737c0,0 -56.615,182.028 -70.349,223.821c-3.29,10.011 -13.103,26.877 -22.277,32.186c-9.608,5.56 -24.21,3.473 -35.369,5.394c-10.926,1.881 -21.131,3.748 -31.588,6.131c-12.057,2.747 -28.374,8.73 -41.362,13.971c-21.38,8.627 -60.327,26.289 -86.919,42.857c-26.593,16.568 -50.918,36.744 -74.34,56.551c-23.712,20.052 -51.855,52.941 -65.499,66.899c-5.684,5.815 -17.109,15.407 -17.822,9.612c-0.736,-5.99 4.582,-30.642 7.32,-44.585c5.598,-28.507 17.516,-85.896 33.301,-126.048c15.852,-40.321 39.985,-84.822 61.812,-114.674c17.964,-24.57 40.689,-46.786 61.555,-69.331c22.332,-24.128 57.07,-46.642 82.66,-62.894c22.257,-14.136 47.332,-24.236 70.881,-32.69c22.648,-8.13 51.52,-12.282 70.413,-15.863c14.106,-2.673 43,-1.437 51.705,-0.074c5.511,0.863 5.541,5.423 5.877,8.737Z"/><path d="M1132.893,1228.678c0,0 -19.11,153.074 -21.138,184.705c-0.204,3.18 -10.529,3.602 -12.075,3.843c-25.178,3.926 -98.787,12.5 -136.144,33.483c-11.979,6.728 -65.3,25.914 -150.339,118.966c-4.156,4.548 -7.233,-3.162 -7.088,-6.174c1.482,-30.757 3.252,-68.733 6.853,-84.286c3.858,-16.661 18.421,-54.788 26.771,-67.146c8.679,-12.845 36.296,-59.813 104.024,-110.548c37.947,-28.426 50.759,-35.064 104.95,-53.807c35.957,-12.436 84.186,-19.037 84.186,-19.037Z"/><path d="M1108.445,1476.699c0,0 -5.285,150.724 -7.255,181.787c-0.296,4.667 -5.94,4.51 -5.94,4.51c0,0 -64.3,3.016 -144.814,48.078c-51.99,29.098 -83.997,65.998 -108.797,98.445c-9.468,12.388 -12.693,3.595 -12.693,3.595c0,0 -5.185,-69.358 -0.336,-100.303c6.027,-38.464 23.89,-93.708 61.61,-135.113c51.436,-56.461 103.99,-77.299 129.06,-83.74c25.069,-6.442 78.373,-18.628 89.166,-17.259Z"/><path d="M918.492,2056.541c2.13,-3.618 7.138,-24.284 19.512,-43.614c3.392,-5.298 11.849,-21.356 23.995,-32.675c9.79,-9.123 16.55,-15.495 34.684,-26.837c1.467,-0.918 28.86,-21.847 64.239,-36.268c6.819,-2.78 58.139,-26.026 58.139,-26.026c0,0 6.015,-3.743 5.71,-9.171c-0.304,-5.428 -5.172,-40.105 -5.172,-40.105l-13.004,-127.327c0,0 -0.172,-3.223 -8.387,-0.811c-8.215,2.412 -36.824,7.982 -78.777,25.176c-2.196,0.9 -41.555,17.948 -65.094,33.885c-11.011,7.455 -35.508,22.236 -57.448,46.764c-29.561,33.049 -44.193,70.093 -42.558,107.492c2.604,59.584 15.684,94.305 48.947,140.975c3.178,4.459 5.476,4.118 6.389,2.911c0.913,-1.206 6.693,-10.751 8.823,-14.37Z"/><path d="M1140.384,1949.289l53.852,192.326c0,0 -140.678,7.01 -181.055,172.081c-3.714,15.184 -54.781,-76.253 -65.923,-116.115c-6.443,-23.05 -7.428,-105.198 27.855,-152.129c35.283,-46.931 90.992,-76.7 165.271,-96.163Z"/><path d="M1196.681,2197.581c0,0 -171.294,23.731 -129.06,201.529c19.255,81.06 60.125,119.53 114.204,151.837c11.177,6.677 -15.388,-119.521 114.598,-162.33c3.232,-1.064 2.368,-4.268 1.347,-8.265c-1.021,-3.997 -8.984,-19.376 -8.984,-19.376l-11.008,-19.577l-59.233,-129.668c0,0 -5.065,-12.67 -21.865,-14.151Z"/><path d="M1523.957,2644.518l-201.445,-211.43c0,0 -22.581,-2.356 -33.277,4.123c-10.696,6.478 -32.734,24.736 -38.651,40.048c-5.917,15.313 -17.207,7.656 -21.961,78.329c-4.754,70.673 55.264,80.096 58.235,80.096c2.971,0 227.591,12.368 227.591,12.368c0,0 7.851,0.214 8.586,-0.069c0.735,-0.283 2.947,-0.333 0.922,-3.465Z"/><path d="M1819.129,681.467l69.08,70.673c0,0 54.967,71.409 74.279,86.869c19.313,15.46 22.284,13.251 30.454,15.46c8.171,2.209 54.967,0 54.967,0l42.339,0l0.743,-11.779l-23.769,-50.796c0,0 -72.794,-140.61 -92.106,-155.334c-19.313,-14.724 -40.854,-55.427 -86.907,-90.55c-46.053,-35.123 -95.077,-67.515 -214.667,-78.558c-119.59,-11.043 -215.878,113.372 -224.323,126.623c-8.446,13.251 -61.184,76.563 -121.35,189.934c-60.166,113.372 -229.288,561.993 -135.781,1072.304c93.506,510.311 277.686,651.891 286.186,661.959c8.501,10.068 90.673,113.975 260.685,91.509c170.012,-22.466 308.854,-241.514 311.688,-300.488c0,0 6.493,-4.104 -45.886,-7.385c-52.379,-3.281 -68.736,3.088 -101.643,29.527c-32.907,26.439 -55.312,101.433 -169.702,130.476c-114.39,29.042 -235.465,-73.287 -284.489,-175.616c-49.024,-102.329 -89.657,-144.252 -152.04,-467.603c-62.383,-323.351 18.575,-832.066 161.517,-1022.814c40.699,-54.31 91.133,-130.132 190.075,-157.567c9.879,-2.739 79.186,-15.719 125.61,10.047c46.424,25.766 45.043,33.109 45.043,33.109Z" style="fill:#f00;"/><path d="M1183.8,1008.036l-39.925,151.836l-19.093,12.883"/><path d="M1038.957,1203.122c0,0 -61.984,20.002 -86.665,34.817c-32.961,19.785 -94.414,64.978 -111.103,83.892c-11.348,12.86 -14.699,5.524 -14.651,0.679c0.155,-15.526 5.114,-64.231 16.553,-93.832c12.965,-33.548 36.168,-75.922 65.129,-105.525c30.96,-31.645 71.314,-71.295 148.377,-93.032c39.279,-11.079 127.009,-28.527 126.081,-22.085c-0.928,6.442 -31.503,124.153 -38.984,151.836c-2.614,9.671 -10.801,12.883 -10.801,12.883l-93.937,30.367Z"/><path d="M1057.247,613.437c-0.913,2.123 0.054,2.855 1.515,2.055c13.042,-7.14 25.97,-15.814 36.902,-23.372c14.502,-10.026 32.997,-21.055 51.554,-30.301c19.656,-9.794 44.787,-20.931 67.94,-29.234c27.342,-9.805 62.058,-22.256 94.945,-28.825c34.833,-6.959 84.652,-16.404 115.61,-21.61c45.845,-7.711 42.348,-7.493 70.031,-13.652c11.756,-2.615 26.09,-8.559 34.726,-12.494c6.421,-2.926 22.645,-10.649 16.117,-12.852c-10.07,-3.398 -47.431,-7.391 -76.537,-7.538c-22.22,-0.113 -44.528,-2.08 -66.748,-2.225c-23.928,-0.157 -60.557,0.542 -82.075,2.248c-17.633,1.398 -47.035,7.987 -47.035,7.987l-44.686,15.077c0,0 -31.396,14.684 -45.705,23.086c-13.967,8.201 -27.579,17.057 -40.145,27.327c-12.586,10.287 -25.102,23.547 -35.373,34.394c-9.289,9.81 -18.386,19.638 -26.45,30.687c-8.506,11.655 -18.468,25.023 -24.585,39.244Z"/><path d="M1147.139,407.284c-27.71,11.16 -75.482,27.216 -130.966,68.823c-34.1,25.572 -64.272,53.564 -92.408,88.19c-32.21,39.641 -65.943,80.318 -100.854,149.653c-42.482,84.37 -101.972,233.333 -119.083,371.002c-3.892,31.312 -191.337,677.52 164.643,1299.642c85.706,149.782 259.056,232.843 279.194,235.678c30.465,4.289 -87.583,-103.873 -92.527,-111.46c-6.668,-10.234 -498.559,-580.208 -208.256,-1588.417c16.551,-57.482 19.285,-89.819 26.722,-119.598c3.631,-14.539 9.17,-48.989 16.71,-56.133c7.541,-7.143 19.557,17.061 27.939,12.683c8.382,-4.378 14.557,-26.17 22.356,-38.952c14.393,-23.59 40.875,-69.556 64.002,-102.587c25.131,-35.892 86.782,-112.764 86.782,-112.764c0,0 46.591,-49.929 60.793,-64.553c7.817,-8.049 21.252,-16.965 24.414,-23.19c2.142,-4.215 4.764,-11.309 1.73,-13.089c-3.034,-1.779 -5.152,-1.901 -7.461,-2.412c-0.774,-0.172 -16.041,4.386 -23.731,7.483Z"/><path d="M422.21,2151.816c13.154,0.959 60.326,15.457 89.366,26.456c30.369,11.503 63.297,25.697 92.848,42.56c31.917,18.213 70.023,44.861 98.651,66.716c25.834,19.722 49.15,43.135 73.118,64.415c23.647,20.995 52.506,49.673 70.689,69.036c14.936,15.905 28.476,32.28 39.894,47.142c10.398,13.535 17.44,24.077 28.61,36.993c12.767,14.762 33.269,37.673 41.987,48.954c3.497,4.525 11.101,17.525 10.32,20.735c-0.78,3.21 -12.856,2.335 -18.274,2.077c-11.026,-0.526 -28.41,-1.09 -46.635,-2.455c-20.097,-1.506 -82.906,-22.426 -82.906,-22.426c0,0 -57.357,-23.005 -81.149,-34.508c-21.784,-10.532 -42.424,-23.872 -62.348,-36.717c-19.654,-12.671 -44.544,-33.396 -55.709,-42.56c-4.329,-3.553 -11.529,-10.352 -11.281,-12.423c0.248,-2.07 8.583,-0.772 12.767,0c7.193,1.327 19.799,1.626 28.906,4.279c8.421,2.453 16.394,5.468 24.25,7.96c7.19,2.281 14.113,5.107 19.916,6.257c3.497,0.693 21.976,3.652 20.102,0.644c-4.062,-6.518 -25.125,-30.032 -37.789,-41.226c-38.903,-34.385 -192.799,-167.203 -198.602,-169.504c0,0 -35.839,-48.089 -46.285,-61.701c-4.713,-6.142 -18.21,-21.271 -10.445,-20.705Z"/><path d="M350.185,1939.675c16.497,-0.602 65.541,-2.056 95.938,8.157c44.216,14.856 90.62,20.613 169.355,80.979c78.735,60.366 118.88,149.917 123.84,165.506c1.864,5.859 31.039,81.157 28.226,91.117c-2.813,9.961 -31.398,-22.556 -46.321,-33.163c-21.507,-15.287 -66.377,-47.514 -82.718,-58.557c-16.341,-11.043 -88.392,-49.324 -146.329,-63.311c-57.937,-13.987 -72.05,-8.834 -82.449,-15.46c-10.399,-6.626 -9.723,-11.478 -12.509,-16.873c-4.526,-8.765 -9.95,-22.527 -14.648,-35.719c-7.428,-20.858 -21.353,-67.885 -27.067,-88.017c-3.193,-11.249 -15.465,-34.289 -5.318,-34.659Z"/><path d="M318.997,1696.114c31.597,4.584 109.338,1.703 186.35,53.24c68.16,45.613 119.234,123.24 130.73,149.826c11.409,26.384 20.036,41.689 37.08,94.701c1.426,4.436 -4.3,1.033 -6.18,0.196c-23.531,-10.49 -90.085,-39.602 -123.6,-54.836c-21.806,-9.912 -51.185,-25.07 -74.635,-33.74c-10.95,-4.049 -42.547,-14.763 -63.701,-15.077c-16.396,-0.243 -46.121,-4.397 -58.798,-6.596c-7.874,-1.366 -9.392,-9.142 -11.559,-15.077c-3.67,-10.051 -8.251,-25.678 -10.458,-45.23c-1.931,-17.106 -3.011,-39.184 -4.278,-57.009c-1.184,-16.642 -3.75,-38.216 -3.328,-49.942c0.383,-10.632 -2.543,-21.169 2.377,-20.455Z"/><path d="M316.101,1456.43c1.473,-6.646 70.616,15.474 103.751,29.329c34.928,14.606 76.401,30.923 105.818,58.305c32.69,30.428 76.656,76.562 90.323,124.266c13.667,47.704 18.555,97.532 16.044,129.567c-0.508,6.478 -4.655,3.363 -6.537,2.073c-7.23,-4.955 -23.997,-21.881 -36.842,-31.803c-14.361,-11.092 -33.668,-23.852 -49.321,-34.747c-14.799,-10.301 -29.343,-21.889 -44.595,-30.625c-14.953,-8.565 -31.669,-15.411 -46.916,-21.791c-14.609,-6.113 -31.098,-12.073 -44.567,-16.49c-11.908,-3.905 -24.145,-6.749 -36.248,-10.012c-12.38,-3.337 -23.664,-4.348 -30.934,-5.589c-4.307,-0.735 -11.713,-1.497 -12.684,-1.856c-2.083,-0.77 -4.777,-0.065 -7.292,-1.526c-3.052,-1.773 -4.325,-4.515 -4.325,-7.107c0,-31.414 0.434,-164.442 4.325,-181.993Z"/><path d="M625.561,1338.823c1.387,-0.589 1.167,-7.129 1.252,-10.099c0.297,-10.405 0.854,-35.73 0.594,-53.593c-0.263,-18.093 -0.655,-36.76 -2.172,-54.964c-1.806,-21.679 -9.712,-62.823 -16.843,-70.48c-7.131,-7.656 -18.841,-45.278 -51.403,-74.795c-32.779,-29.714 -66.194,-41.179 -83.365,-45.897c-26.41,-7.256 -55.168,-6.801 -74.995,-2.985c-2.358,0.454 -19.217,8.835 -23.175,22.38c-8.582,29.373 -9.645,37.182 -13.822,55.35c-5.055,21.988 -14.207,62.914 -16.507,76.58c-0.403,2.392 2.816,4.518 5.239,4.834c11.306,1.472 54.206,-0.13 63.714,2.814c9.508,2.945 62.224,14.99 80.662,27.091c11.158,7.323 30.479,16.653 53.059,37.855c22.581,21.202 36.762,37.844 48.275,51.474c7.691,9.105 17.327,22.472 21.971,28.376c1.985,2.524 6.127,6.648 7.514,6.059Z"/><path d="M655.405,1099.38c6.023,9.053 11.243,-33.818 14.239,-50.579c2.996,-16.761 6.942,-33.431 8.968,-47.161c1.628,-11.032 2.471,-28.247 2.41,-34.833c-0.279,-30.27 -8.381,-96.707 -48.353,-140.995c-27.286,-30.232 -68.168,-49.711 -105.367,-58.158c-18.212,-4.135 -33.879,-4.82 -55.079,14.547c-19.437,17.756 -43.711,90.137 -43.711,90.137c0,0 -22.284,60.955 -28.226,69.053c-5.942,8.098 0.13,13.476 4.757,14.45c25.942,5.461 97.748,12.788 145.286,45.18c47.538,32.392 75.891,54.489 105.077,98.359Z"/><path d="M749.832,496.541c6.469,22.788 27.657,68.113 32.136,135.843c4.488,67.866 -11.402,119.701 -49.602,207.897c-5.907,13.638 -7.92,4.732 -10.445,2.356c-8.557,-8.052 -25.436,-35.403 -40.896,-50.667c-19.816,-19.564 -49.614,-48.672 -82.755,-62.475c-33.141,-13.803 -52.383,-20.178 -65.149,-27.08c-12.767,-6.902 2.917,-16.403 6.301,-20.926c10.22,-13.662 40.435,-58.87 48.84,-68.112c7.099,-7.806 86.476,-75.513 92.764,-79.067c6.935,-3.92 32.471,-23.255 43.939,-29.55c8.375,-4.597 22.903,-15.143 24.868,-8.22Z"/><path d="M795.567,463.999c20.6,-7.79 84.555,-24.374 123.219,-35.054c36.169,-9.99 90.386,-24.751 108.767,-29.023c1.216,-0.282 -0.308,6.239 -1.141,7.161c-23.706,26.259 -111.113,119.546 -139.953,151.145c-11.369,12.456 -26.241,30.907 -33.087,38.446c-2.346,2.583 -7.289,8.224 -9.888,8.475c-2.599,0.251 -5.026,-2.282 -6.085,-5.083c-4.12,-10.898 -11.872,-40.38 -18.635,-60.307c-7.036,-20.731 -19.713,-51.45 -23.579,-64.076c-1.142,-3.729 -3.183,-10.337 0.38,-11.685Z"/><path d="M2679.33,1237.212l52.519,-323.665l-952.979,0l-211.985,1324.942l952.979,0l51.564,-323.665l-577.707,0l29.602,-184.546l465.031,0l49.654,-308.522l-465.985,0l29.602,-184.546l577.707,0Z" style="fill-rule:nonzero;"/></svg>