<?xml version="1.0" encoding="UTF-8"?>
<svg xmlns="http://www.w3.org/2000/svg" viewBox="0 0 512 512" width="512" height="512">
  <rect x="16" y="16" width="480" height="480" rx="80" ry="80" fill="#ffffff" />
  <g transform="translate(72, 56) scale(0.32)">
    <path d="M2679.33,1237.212l52.519,-323.665l-952.979,0l-211.985,1324.942l952.979,0l51.564,-323.665l-577.707,0l29.602,-184.546l465.031,0l49.654,-308.522l-465.985,0l29.602,-184.546l577.707,0Z" style="fill:#f00;fill-rule:nonzero;"/>
    <path d="M1819.129,681.467l69.08,70.673c0,0 54.967,71.409 74.279,86.869c19.313,15.46 22.284,13.251 30.454,15.46c8.171,2.209 54.967,0 54.967,0l42.339,0l0.743,-11.779l-23.769,-50.796c0,0 -72.794,-140.61 -92.106,-155.334c-19.313,-14.724 -40.854,-55.427 -86.907,-90.55c-46.053,-35.123 -95.077,-67.515 -214.667,-78.558c-119.59,-11.043 -215.878,113.372 -224.323,126.623c-8.446,13.251 -61.184,76.563 -121.35,189.934c-60.166,113.372 -229.288,561.993 -135.781,1072.304c93.506,510.311 277.686,651.891 286.186,661.959c8.501,10.068 90.673,113.975 260.685,91.509c170.012,-22.466 308.854,-241.514 311.688,-300.488c0,0 6.493,-4.104 -45.886,-7.385c-52.379,-3.281 -68.736,3.088 -101.643,29.527c-32.907,26.439 -55.312,101.433 -169.702,130.476c-114.39,29.042 -235.465,-73.287 -284.489,-175.616c-49.024,-102.329 -89.657,-144.252 -152.04,-467.603c-62.383,-323.351 18.575,-832.066 161.517,-1022.814c40.699,-54.31 91.133,-130.132 190.075,-157.567c9.879,-2.739 79.186,-15.719 125.61,10.047c46.424,25.766 45.043,33.109 45.043,33.109Z" style="fill:#f00;"/>
  </g>
</svg>
